<svg xmlns="http://www.w3.org/2000/svg" width="360" height="100" viewBox="0 0 360 100">
  <defs>
    <style>
      .cls-1 {
        fill: #11e4ab;
        fill-rule: evenodd;
      }

      .cls-2 {
        font-size: 25px;
        text-anchor: middle;
        fill: #616363;
        font-family: "Franklin Gothic Heavy";
        text-transform: uppercase;
      }

      .cls-3 {
        fill: #20cfcf;
      }
    </style>
  </defs>
  <path id="Palm_Icon_1" data-name="Palm Icon 1" class="cls-1" d="M85.786,16c-0.882.509-1.119,1.509-1.694,2.28-1.714,2.3-2.408,4.57-3.287,7.655q0.05,1.669.1,3.339a0.566,0.566,0,0,1,.2.163c0.442-.121.427-0.329,0.4-0.814a7.142,7.142,0,0,0,.5-1.71,17.892,17.892,0,0,1,1.992-3.746c0.285-.384.559-0.915,0.9-1.3,0.485-.557,1.32-0.9,1.494-1.71-0.406-.517-0.113-1.4-1-1.547a0.776,0.776,0,0,1-.4.163V18.117A3.477,3.477,0,0,0,85.786,16ZM69.548,21.538c-1,0-1.383-.235-2.49-0.244v0.082h0.1c0.87,0.706,2.387.773,3.387,1.384,0.314,0.192.268,0.7,0.6,0.9,0.644,0.373,1.423.476,2.092,0.814,2.29,1.159,4.608,2.738,5.678,4.886h-0.3a19.225,19.225,0,0,0-4.582-3.095c-1.851-1.065-3.848-2.552-6.276-3.095a13.5,13.5,0,0,0-4.881.814,12.424,12.424,0,0,0-2.69,3.583l-0.1,2.688a20.018,20.018,0,0,1-.5,3.746l-0.6,1.792a5.352,5.352,0,0,0-1,2.28h0.2a2.09,2.09,0,0,1,1.1-.651,0.428,0.428,0,0,1,.2.489,12.741,12.741,0,0,0-1,3.42h0.2V41.164c1.649-1.1,1.381-4.124,2.49-5.7l0.3,0.081a6.249,6.249,0,0,0,1.2,1.3,0.31,0.31,0,0,0,.3-0.326,8.066,8.066,0,0,1-.9-3.013,1.338,1.338,0,0,1,.7-0.163,2.177,2.177,0,0,0,1.993.163h-0.1c-0.744-.458-1.821-0.449-1.992-1.384h0.2a5.109,5.109,0,0,0,2.192.733l0.1-.244c-0.942-.436-1.92-0.883-2.192-1.873h0.1V30.659a0.372,0.372,0,0,1,.2.081c0.937,0.247,1.274.856,2.59,0.9a0.567,0.567,0,0,1,.2-0.163l-0.1-.244a4.139,4.139,0,0,1-1.793-3.42c0.192-.905.155-2.016,1.3-2.117a2.76,2.76,0,0,1,.1.977,4.843,4.843,0,0,0-.5,2.443h0.1v0.081l0.3-.081a2.59,2.59,0,0,1,1.395-1.384c0,0.91-.365,1.313-0.4,2.2h0.3a2.774,2.774,0,0,1,1.1-1.221V29.03a2.472,2.472,0,0,0-.6,1.466h0.2a6.806,6.806,0,0,1,2.59-1.955c-0.184,1.057-1.291,1.528-1.395,2.688h0.2a4.056,4.056,0,0,1,2.092-1.384c-0.042.419-.176,0.5-0.2,0.977a13.873,13.873,0,0,0,2.989,1.3,3.35,3.35,0,0,0,1.793-.407L78.314,31.8a1.16,1.16,0,0,1,.2.326h-0.1a10.893,10.893,0,0,1-1.694.163,13.364,13.364,0,0,1-2.59.652,9.289,9.289,0,0,0-3.287-1.14,18.666,18.666,0,0,1-2.391,1.629,30.855,30.855,0,0,0-2.49,2.117v0.244a2.917,2.917,0,0,1,.9,0,8.129,8.129,0,0,1-1.893,1.873,0.267,0.267,0,0,0,.1.163,1.023,1.023,0,0,0,.5.081,0.357,0.357,0,0,1,.4-0.081,0.372,0.372,0,0,1,.1.244,3.8,3.8,0,0,0-1.3,1.955c0.756-.1.741-0.54,1.494-0.651,0.482,0.779.581,1.842,1,2.606a22.576,22.576,0,0,0,2.989,3.828,18.474,18.474,0,0,0,1.893,1.384h0.3a5.116,5.116,0,0,0-.9-1.955c-0.641-1.248-.856-2.434-1.395-3.746a4.825,4.825,0,0,1-.7-1.792c0.4-.13.643-0.118,0.7-0.57a2.089,2.089,0,0,1-.3-1.3,0.263,0.263,0,0,0,.1-0.081,0.371,0.371,0,0,1,.2.081c0.669,0.181.729,0.6,1.594,0.652,0.429-.609,1.158-0.988,1.594-1.547l0.3-.814c0.129-.08.351-0.077,0.5-0.163l0.2-.326c0.586-.263.739,0.242,0.8-0.489a0.53,0.53,0,0,1-.3-0.489c0.732,0.041,1.026.286,1.793,0.326l0.1-.244a1.806,1.806,0,0,1-.5-1.221,6.548,6.548,0,0,1,3.287-.489v0.407c-0.63.332-.919,0.946-1.494,1.3-0.939.584-3.846,2.712-4.184,3.583a14.984,14.984,0,0,0,.1,3.828l0.1,1.873A27.515,27.515,0,0,0,76.222,49.8h0.1V49.145c-0.734-.942-0.481-5.028-0.4-6.515,0.239-.094.173-0.166,0.4-0.081,0.949,0.546,1.278,2.213,1.793,3.095a0.263,0.263,0,0,0,.1-0.081,3.762,3.762,0,0,0,.1-1.71V42.223c-0.325-.965-1.126-1.718-1.2-2.85a1.66,1.66,0,0,1,.4-0.081c0.491,0.739.745,1.737,1.2,2.525h0.3V40.757h0.2a0.918,0.918,0,0,0,.7.244,1.459,1.459,0,0,0,.1-0.57,12.62,12.62,0,0,1-1.1-3.665,1.2,1.2,0,0,1,.6-0.163v0.163c0.579,0.666.6,3.219,1.494,3.42a1.7,1.7,0,0,0,.1-0.652c-0.87-1.077-.7-5.1-0.7-6.759h0.2l0.1,0.163A3.891,3.891,0,0,1,81,34.4c0.313,1.08.323,2.281,0.7,3.42,1.29,3.923,1.752,8.1,3.487,11.564,0.415,0.828,1.146,3.586,2.092,3.746,0.319-.462.541-1.009,0.9-1.466,0.477-.614,1.226-0.713,1.3-1.71-1.28-1.17-1.874-3.236-2.69-4.8A58.44,58.44,0,0,1,83,35.708c-0.334-1.064.417-1.957,0.5-2.85a1.194,1.194,0,0,1,.5-0.163c0.987,1.359,1.327,3.3,2.192,4.8h0.1V36.767a5.638,5.638,0,0,1-.2-3.176,0.371,0.371,0,0,1,.2.081,2.485,2.485,0,0,1,.5.814,0.37,0.37,0,0,0,.2-0.081c0.416-.556.047-2.042,0.3-2.606h0.2a3.3,3.3,0,0,0,1.1,1.384,3.162,3.162,0,0,0,1.395.163c0.463-.7.683-1.746,1.1-2.443a0.371,0.371,0,0,1,.2.082c0.408,0.484.117,1.526,0.1,2.28a0.567,0.567,0,0,1,.2.163h0.1V33.346a1.4,1.4,0,0,1,.8-0.57,0.261,0.261,0,0,0,.1.081,12.162,12.162,0,0,0,.3,2.036h0.2V34.812a7.136,7.136,0,0,0,.3-1.3l0.3-.081v0.081c0.543,0.661.117,1.874,0.5,2.688a13.885,13.885,0,0,0,3.287,2.524c-0.04-.657-0.831-2.169-0.1-2.524,0.1-.02.038-0.064,0.1,0,0.726,0.236,1,1.106,1.395,1.629a18.353,18.353,0,0,1,2.889,4.886h0.1v-0.57a4.525,4.525,0,0,1-.4-1.222c-0.406-.977-0.873-2.043-1.395-3.013a35.626,35.626,0,0,0-2.889-4.316,33.057,33.057,0,0,0-4.782-5.7,11.107,11.107,0,0,0-2.192.407h-0.9a29.424,29.424,0,0,0-3.586.733c-0.783.276-1.122,0.927-1.992,1.14V29.763c0.77-.759-0.056-1.432,1.893-1.384a19.228,19.228,0,0,1,1.992-.326l-0.1-.244c-0.692-.337-2.038-0.96-2.092-1.792h0.1V25.936a0.369,0.369,0,0,1,.2.081c1.187,0.305,1.925,1.257,3.387,1.384a4.1,4.1,0,0,1,1.395-.407,0.989,0.989,0,0,0,.1-0.326c-0.589-.287-1.646-0.75-1.793-1.384h0.1a12.269,12.269,0,0,0,1.3.652,6.053,6.053,0,0,0,4.085,1.14l0.1-.244c-0.618-.3-1.664-0.771-1.793-1.466h0.1c0.46,0.3,3.261,1.7,3.686,1.547a0.281,0.281,0,0,0,.1-0.163c-0.986-.619-1.785-1.5-2.69-2.2V24.225a6.059,6.059,0,0,1,2.391,1.3c1.334,0.786,2.739,1.315,4.184,2.036a5.58,5.58,0,0,0,2.191.9V28.3a32.271,32.271,0,0,1-5.777-4.072c-0.592-.484-1.682-0.953-1.793-1.792a3.015,3.015,0,0,1,.8-0.081c0.909,0.571,2.713.763,3.785,1.221,1.121,0.479,1.994,1.411,3.287,1.71V25.2c-2.214-1.85-4.117-3.79-7.571-4.642l-2.989-.081c-2.965,0-5.347-.007-6.475,1.466A47.091,47.091,0,0,0,82,28.623c-0.3.559-.277,1.889-1.1,2.036a8.523,8.523,0,0,1-1-2.362,1.552,1.552,0,0,0,.5-0.652,10.371,10.371,0,0,1,.2-4.8c0.326-.935,1.258-2.283,1.3-3.176H81.8V19.583a9.336,9.336,0,0,0-1.793-.081,7.868,7.868,0,0,1-1,1.3v0.081c-0.1.081-.1-0.08-0.1-0.081a0.371,0.371,0,0,1-.1-0.244,9.089,9.089,0,0,0,1-2.443h-0.2a3.012,3.012,0,0,1-2.092,1.14,1.86,1.86,0,0,0-1.395-.407,0.263,0.263,0,0,1-.1.081v0.163a3.463,3.463,0,0,1,1.693,1.71h-0.2a3.688,3.688,0,0,0-1.694-1.059c-0.657-.151-1.237.021-1.793-0.163a15.7,15.7,0,0,0-2.889-.977v0.163a4.4,4.4,0,0,1,.7.652,25.173,25.173,0,0,1,2.491,2.2,3.53,3.53,0,0,1,1.1,1.14h-0.2a8.413,8.413,0,0,0-2.092-1.547l-1.1-.977c-1.464-.9-3.955-2.661-6.176-2.769v0.081c0.773,0.4,2.813,1.494,3.088,2.2h-0.4a3.325,3.325,0,0,0-1.694-.488V19.42a8.678,8.678,0,0,1,2.59,1.792A0.476,0.476,0,0,1,69.548,21.538Zm8.766,0.244V21.456h0.2V21.375c0.1-.081.1,0.08,0.1,0.081a0.372,0.372,0,0,1,.1.244h-0.1v0.081h-0.3Zm13.947,0.163c0.783,0.5,2.006.916,2.192,1.873h-0.1V23.9a19.02,19.02,0,0,1-3.387-1.792,0.566,0.566,0,0,0,.2-0.163h1.1Zm-1.793.489a6.684,6.684,0,0,0,.8.326,9.367,9.367,0,0,1,1.992,2.117h-0.3c-1-.745-2.846-0.933-2.989-2.362h0.1V22.434h0.4Zm-3.387,3.095h-0.4c-0.24-.223-1.905-1.43-0.4-1.547A3.484,3.484,0,0,1,87.081,25.528Zm0.8,11.157c-0.031.758-.5,0.939-0.6,1.629,0.833-.125.909-0.691,1.793-0.814a4.985,4.985,0,0,1-.3,1.059c-0.108.618,0.781,1.554,1.1,1.954h0.1V40.431c0.536-.413.223-1.216,1.2-1.3a4.394,4.394,0,0,1,.2,1.873,3.31,3.31,0,0,0-.3,1.059c0.133,0.646,1.195,1.2,1.594,1.71,0.745,0.958,1.085,2.179,1.793,3.176h0.1V46.783c0.392-.494-0.133-1.964-0.3-2.443-0.379-1.1-.379-2.137-0.8-3.176a10.958,10.958,0,0,1-1.1-2.932h0.1V38.151h0.1v0.081C93.765,38.9,94.145,40.345,95.349,41V40.838a7.1,7.1,0,0,1-.7-1.547,26.734,26.734,0,0,0-2.789-3.99c-0.381-.473-0.5-1.178-1.2-1.384-0.539-.288-1.394.059-2.092-0.163-0.185-.059-0.408-0.406-0.6-0.244-0.335.322-.088,1.026-0.3,1.466-0.289.6-.882,0.589-0.9,1.547,0.068,0.063.131,0.182,0.2,0.244a0.789,0.789,0,0,0,.4.081A0.753,0.753,0,0,1,87.878,36.685ZM69.847,33.916c0.229,0.585-.357,1.173-0.6,1.629-0.5.944-.6,2.054-1.1,3.013h-0.1v-0.9C68.931,36.512,68.059,34.316,69.847,33.916Zm20.721,0.326a1.162,1.162,0,0,1,.2.651h-0.2a1.114,1.114,0,0,1-.4-0.57h0.1V34.242h0.3Zm-18.928.081a1.91,1.91,0,0,1,.6.57h-0.2a2.3,2.3,0,0,1-.5-0.57h0.1Zm-2.889,6.759a7.828,7.828,0,0,1,1.1,2.362,0.261,0.261,0,0,0-.1.081l-0.2-.081a4.494,4.494,0,0,1-1.2-2.28,0.266,0.266,0,0,0,.1-0.081h0.3Zm21.119,9.61h-0.3c-0.833,1.047-2.23,2.775-1.3,4.235a0.915,0.915,0,0,0,1,.733A4.316,4.316,0,0,1,92.858,54.6a0.983,0.983,0,0,1,.1.326c-0.913.4-2.822,0.718-3.188,1.547a0.476,0.476,0,0,0-.1.326c1.423,1.413,2.569,2.917,4.084,4.235h0.2V60.546c-1.081-1.351.738-4.037,0.8-5.375C92.91,53.831,91.553,52.159,89.87,50.692Zm5.479,11.971c-1.31-.08-2.775-1.34-3.885-1.792v0.163a20.469,20.469,0,0,1,2.192,1.629,0.909,0.909,0,0,1,.5.651c-0.2.078-.6-0.073-0.8,0-0.246.105-.068-0.035-0.2,0.163h0.1c0.4,0.893,2.035,1,2.192,2.036a1.912,1.912,0,0,0-.7.244c3.3,0.332,7.427.163,11.058,0.163,1.123,0,3.347.258,4.084-.163a0.28,0.28,0,0,0,.1-0.163c-0.624-.209-1.587-0.3-1.594-1.059a2.8,2.8,0,0,0,.7-2.117H109V62.338a0.368,0.368,0,0,0-.2.081,1.978,1.978,0,0,1-1,.9,5.468,5.468,0,0,1-.1-1.792,3.8,3.8,0,0,1-.2-1.059,8.305,8.305,0,0,0-.6-1.3,0.376,0.376,0,0,0-.2.081,22.472,22.472,0,0,0-.6,3.095h-0.2a13.952,13.952,0,0,0-.8-1.791,15.321,15.321,0,0,0-3.786-1.059,2.753,2.753,0,0,1-1.893.977V60.383h-0.1c0.2-.373.883-1.017,0.8-1.466s-1-.67-1.395-0.9c-0.865-.5-2.338-2.053-3.487-2.117a5.351,5.351,0,0,0-.5,4.723l0.1,0.9A2.47,2.47,0,0,1,95.349,62.664Zm11.556,0.326a10.252,10.252,0,0,1-.1,2.117,0.318,0.318,0,0,1-.2.244,1.48,1.48,0,0,1-1.1.081,1.093,1.093,0,0,1-.1-0.407C105.957,64.536,106.176,63.29,106.905,62.989Zm1,1.547c-0.033.163-.066,0.326-0.1,0.489a1.269,1.269,0,0,1-.6.244,0.962,0.962,0,0,1-.1-0.326A2.5,2.5,0,0,1,107.9,64.537Z"/>
  <path id="Scooner_2_1" data-name="Scooner 2 1" class="cls-1" d="M102.152,55.444c0.611,0.115,3.037,3.491,3.037,3.491L141.179,59A4.107,4.107,0,0,0,142,57.532a1.46,1.46,0,0,0-.386-0.876,8.759,8.759,0,0,1-.082-1.145,0.5,0.5,0,0,0-.081-0.269l-1.317.137-0.022-1.284,0.038-.28c0.532-.01.6-0.042,0.593-0.12a0.752,0.752,0,0,0-.488-0.094s0.167-5.095.381-7.577,0.794-11.685.794-11.685a1.79,1.79,0,0,1,.306-0.294c0.2-.158.3-0.274,0.234-0.36s-0.181.014-.181,0.014l-0.1.057-8.339-.617-0.441-.4a0.364,0.364,0,0,0-.02-0.115,0.43,0.43,0,0,0-.4-0.135s0,0.017,0,.042l-6.965-.58-4.445-.8a0.227,0.227,0,0,1-.173-0.143h-0.564L120.334,31l-0.008.01h-0.112v0.115h0.025c-0.113.151-.319,0.419-0.554,0.718-0.356.452-2.566,3.1-4.673,5.493s-7.286,9.208-8.141,10.3c-0.148.19-.358,0.5-0.6,0.877l-4.025,5.055c-0.1-.021-0.2-0.042-0.285-0.063-0.428-.105-0.367-0.067-0.4.01a1.661,1.661,0,0,0,.576.187l-0.739.929a0.489,0.489,0,0,0-.388.346C100.89,55.309,101.541,55.328,102.152,55.444Zm12.039,1.1s-2.851-.259-4.9-0.634-6.411-1.119-6.411-1.119l0.037-.642s0.611-.067,1.437-0.231,9.988-2.1,9.988-2.1Zm3.269-2.93c0,0.1.172,0.1,0.172,0.1s-0.213,1.771-.294,2.454-0.55.5-.55,0.5l-2.406-.118,0.077-4.749,2.169-.447,0.893,1.768s0.008,0.086.008,0.13a0.175,0.175,0,0,0,.13.057l0.01,0.226S117.465,53.522,117.46,53.618Zm0.152-.505-0.9-1.8a0.422,0.422,0,0,0,.107-0.246c0-.13-0.076-0.116-0.076-0.116l1.573-3.06-0.626,5.254Zm0.56,0.084L120,39.373l0.773-.522a0.417,0.417,0,0,1-.077.274c-0.091.116-.595,4.273-0.763,5.485s-1.36,8.443-1.36,8.443l-0.03.2a0.2,0.2,0,0,1-.244.158V53.327A0.18,0.18,0,0,0,118.172,53.2Zm2.714,2.748c-0.143-.289-2.973-0.375-2.973-0.375l0.2-1.679H118.2c0.084,0,.043-0.217.043-0.217s5.525-.38,8.66-0.589l-0.972,3.5c-1.324-.105-4.736-0.118-4.736-0.118A4.48,4.48,0,0,1,120.886,55.944ZM126,56.588l0.975-3.509c1-.067,1.743-0.115,1.963-0.127s0.386-.022.5-0.033l-0.183.54-0.041.029a0.68,0.68,0,0,0-.1.183l-2.453,3.364-0.362,0a0.884,0.884,0,0,0,.142-0.365A0.858,0.858,0,0,0,126,56.588Zm6.165-20.869-0.458,3.724-0.255.115a0.284,0.284,0,0,0-.214.356,0.611,0.611,0,0,0,.459-0.1l-0.679,5.021L129.6,52.65a1.466,1.466,0,0,0-.334-0.006s-0.1-3.908-.159-6.642l0.021,0.039,2.985-10.366C132.141,35.7,132.167,35.719,132.167,35.719Zm0.591,3.392c0.015-.065,2.283-1.364,2.283-1.364a12.491,12.491,0,0,1-1.084.722,13.228,13.228,0,0,0-1.108.736s-0.254,2.615-.56,5.02-1.232,7.216-1.3,7.534a5.321,5.321,0,0,0,.02,1.048,0.86,0.86,0,0,1-.5.77c-0.143.048-.118,0.016-0.118,0.016l1.73-14.042c0.07-.02.169-0.052,0.278-0.093A0.675,0.675,0,0,0,132.758,39.111Zm-5.091,17.911-0.914.012,2.518-3.382,0.088,2.3c-0.34.017-1.15,0.058-1.468,0.088C127.484,56.079,127.667,57.022,127.667,57.022Zm1.784-1.074-0.089-2.526,0.166-.512c0.25-.031.206-0.071,0.206-0.169a0.1,0.1,0,0,0-.088-0.08l1.246-6.874L129.52,55.944Zm10.233-.522,0.379-1.235,0.014,1.194Zm0.348-1.292-0.409,1.3-3.444.358s0.007-.5.031-0.847a0.357,0.357,0,0,1,.358-0.4c0.168-.044.313,0.007,0.282-0.2s-6.567,0-6.567,0l0.107-.627s0.13-.015.138,0.043a0.054,0.054,0,0,0,.061.05s6.873-.007,8.446,0c0.464,0,.8,0,1.05,0Zm1.529-20.306-3.75,2.1-0.069-.137a0.474,0.474,0,0,0-.184-0.187l-3.933-2.353Zm-7.989-.53,3.849,2.338-0.031.058-3.856-2.355Zm-0.152.166,0.049-.054c0.2,0.124,3.872,2.408,4.028,2.464,0.08,0.029.168,0.064,0.238,0.093l-4.974,2.781Zm-0.774,1.967s0.1-.644.132-1.173c0.024-.41.125-1.058,0.133-1.411L133.29,33.2l0.022,0.181-0.627,5.405-0.506.283,0.355-2.881a0.232,0.232,0,0,0,.183-0.241A1.366,1.366,0,0,0,132.646,35.43Zm-0.387-.346a0.479,0.479,0,0,1-.184.413,0.089,0.089,0,0,0-.024.087L129.1,45.8c0-.152-0.006-0.3-0.01-0.443-0.061-2.713.5-11.7,0.543-12.412a2.22,2.22,0,0,0-.012-0.631l2.862,0.247C132.447,32.962,132.268,34.852,132.259,35.084Zm-11.613-.968s0.24-1.882.323-2.547l3.93,0.339-3.922-.4c0.012-.1.02-0.164,0.021-0.174,0.008-.072.107,0.079,0.176,0.116a0.244,0.244,0,0,0,.236-0.159,0.052,0.052,0,0,0-.01-0.029l3.816,0.67,4.358,0.376-9.5,6.474,0.009-.066s0.42-3.4.42-3.7a2.34,2.34,0,0,1,.244-0.649A0.356,0.356,0,0,0,120.646,34.117Zm-0.341-2.993h0.189l-0.028.383-0.621.568-0.168.115c-0.168.116-1.405,1.436-1.405,1.436Zm-2.982,7.058a16.333,16.333,0,0,1,2.11-5.538,0.218,0.218,0,0,1,.221-0.122,0.252,0.252,0,0,0,.1-0.232l0.7-.614-0.124,1.709a1.706,1.706,0,0,1-.194,0c-0.081-.005-0.06,0-0.06.062s0.071,0.039.1,0.053,0.016,0.068-.05.072-0.036.13-.036,0.13l0.157,0.005s-0.022.108-.046,0.273a2.2,2.2,0,0,0-.182.361,0.234,0.234,0,0,0,.084.267L119.494,39.2s-0.389.3-.489,0.4-0.069.187,0.046,0.18,0.046,0.115.084,0.166a0.341,0.341,0,0,0,.234-0.056s-0.733,5.755-.835,6.736a7.165,7.165,0,0,1-.814,2.328,17.748,17.748,0,0,1-1.085,1.953,0.728,0.728,0,0,1-.073.075l-0.726-1.316S116.9,41.05,117.323,38.182Zm-6.848,12.273c1.635-.274,5.254-0.736,5.254-0.736l0.718,1.352,0.027-.014a1.507,1.507,0,0,1-.266.163s-11.689,2.46-12.323,2.562-0.671-.022-0.671-0.022,0.32-.527.465-0.758a8.167,8.167,0,0,1,1.909-1.364C106.688,50.974,108.841,50.729,110.475,50.455Zm-4.628-1.271c-1.162,1.865-2.707,4.547-2.707,4.547s-0.424-.065-0.816-0.142Zm-3.632,4.542c0.354,0.084.721,0.159,0.721,0.159l-0.2.029a1.294,1.294,0,0,0-.152.847l-0.214-.02c-0.214-.019-0.886-0.1-0.886-0.1Zm23-21.789-0.317-.027,0.38,0.038Z"/>
  <text id="sok_chhatt" data-name="sok chhatt" class="cls-2" x="224.333" y="75.667"><tspan x="224.333">sok <tspan class="cls-3">chhatt</tspan></tspan></text>
</svg>
